<svg aria-hidden="true" style="position: absolute; width: 0; height: 0; overflow: hidden;" version="1.1" xmlns="http://www.w3.org/2000/svg" xmlns:xlink="http://www.w3.org/1999/xlink">
<defs>
<symbol id="icon-up-circular-interface-button_icon-iconscom_73119" viewBox="0 0 32 32">
<path d="M16 0c-8.837 0-16 7.163-16 16s7.163 16 16 16 16-7.164 16-16-7.163-16-16-16zM16 30c-7.732 0-14-6.268-14-14s6.268-14 14-14c7.732 0 14 6.268 14 14s-6.268 14-14 14zM16.879 11.464c-0.24-0.24-0.568-0.314-0.879-0.26-0.31-0.055-0.639 0.020-0.879 0.26l-7.657 7.657c-0.391 0.391-0.391 1.024 0 1.414 0.391 0.391 1.024 0.391 1.414 0l7.122-7.121 7.121 7.121c0.391 0.391 1.024 0.391 1.414 0 0.391-0.391 0.391-1.024 0-1.414l-7.656-7.657z"></path>
</symbol>
</defs>
</svg>
